# xmcd
#
# Track frame offsets: 
#        150
#        16657
#        34168
#        48695
#        76410
#        90191
#        109884
#        141143
#        159633
#        181187
#        198997
#        213418
#        251362
#        263732
#        287455
#
# Disc length: 4122 seconds
#
# Revision: 0
# Processed by: cddbd v1.5.2PL0 Copyright (c) Steve Scherf et al.
# Submitted via: ExactAudioCopy v1.0b3
#
DISCID=c110180f
DTITLE=Various Artist - Disco Diva Delights Vol. 1
DYEAR=2009
DGENRE=Disco
TTITLE0=The Wonderband - Height Report Disco
TTITLE1=Dee Dee - I Put a Spell on You
TTITLE2=Anik de Luk - He's Dyn-o-mite
TTITLE3=Venise - The Mystery With Me
TTITLE4=Midnight Stud - Judith
TTITLE5=Satin and Green - Spectacular
TTITLE6=Top Secret - Dancing Into Midnight
TTITLE7=Pulse 3 - Love Trip
TTITLE8=Kathi Baker - Disco Jam
TTITLE9=Toni Van Duyne - Be a Star
TTITLE10=Black Hole - Flash-o-Disc
TTITLE11=Skylite - Smile
TTITLE12=Hot Sauce - Conga
TTITLE13=Melody Stuart - You Don't Know What You're Missing Tonight
TTITLE14=Ysanne Carniss - Cool It (Stevie Kotey edit)
EXTD=
EXTT0=
EXTT1=
EXTT2=
EXTT3=
EXTT4=
EXTT5=
EXTT6=
EXTT7=
EXTT8=
EXTT9=
EXTT10=
EXTT11=
EXTT12=
EXTT13=
EXTT14=
PLAYORDER=
